<svg xmlns="http://www.w3.org/2000/svg" xmlns:xlink="http://www.w3.org/1999/xlink" viewBox="0,0,256,256" width="75px" height="75px"><defs><linearGradient x1="32.135" y1="1.445" x2="32.135" y2="51.043" gradientUnits="userSpaceOnUse" id="color-1"><stop offset="0" stop-color="#000000"></stop><stop offset="0.492" stop-color="#000000"></stop><stop offset="1" stop-color="#000000"></stop></linearGradient><linearGradient x1="23.522" y1="-3.418" x2="23.522" y2="63.822" gradientUnits="userSpaceOnUse" id="color-2"><stop offset="0" stop-color="#000000"></stop><stop offset="1" stop-color="#000000"></stop></linearGradient><linearGradient x1="32.135" y1="-3.418" x2="32.135" y2="63.822" gradientUnits="userSpaceOnUse" id="color-3"><stop offset="0" stop-color="#000000"></stop><stop offset="1" stop-color="#000000"></stop></linearGradient><linearGradient x1="40.749" y1="-3.418" x2="40.749" y2="63.822" gradientUnits="userSpaceOnUse" id="color-4"><stop offset="0" stop-color="#000000"></stop><stop offset="1" stop-color="#000000"></stop></linearGradient><linearGradient x1="31.85" y1="37.11" x2="31.85" y2="43.98" gradientUnits="userSpaceOnUse" id="color-5"><stop offset="0" stop-color="#000000"></stop><stop offset="0.492" stop-color="#000000"></stop><stop offset="1" stop-color="#000000"></stop></linearGradient><linearGradient x1="31.846" y1="-4.535" x2="31.846" y2="62.706" gradientUnits="userSpaceOnUse" id="color-6"><stop offset="0" stop-color="#000000"></stop><stop offset="1" stop-color="#000000"></stop></linearGradient><linearGradient x1="32.135" y1="-3.418" x2="32.135" y2="63.822" gradientUnits="userSpaceOnUse" id="color-7"><stop offset="0" stop-color="#000000"></stop><stop offset="1" stop-color="#000000"></stop></linearGradient></defs><g fill-opacity="0" fill="#dddddd" fill-rule="nonzero" stroke="none" stroke-width="1" stroke-linecap="butt" stroke-linejoin="miter" stroke-miterlimit="10" stroke-dasharray="" stroke-dashoffset="0" font-family="none" font-weight="none" font-size="none" text-anchor="none" style="mix-blend-mode: normal"><path d="M0,256v-256h256v256z" id="bgRectangle"></path></g><g fill="none" fill-rule="nonzero" stroke="none" stroke-width="1" stroke-linecap="butt" stroke-linejoin="miter" stroke-miterlimit="10" stroke-dasharray="" stroke-dashoffset="0" font-family="none" font-weight="none" font-size="none" text-anchor="none" style="mix-blend-mode: normal"><g transform="scale(4,4)"><path d="M54,13.6v24.51c0,8.79 -7.12,15.91 -15.9,15.91h-27.83v-40.42h12.59c2.93,0 6.62,1.99 9.28,4.64c2.65,-2.65 6.34,-4.64 9.27,-4.64z" fill="url(#color-1)"></path><circle cx="22.859" cy="30.163" r="9.276" fill="#ffffff"></circle><circle cx="41.411" cy="30.163" r="9.276" fill="#ffffff"></circle><path d="M44,48.473c0,0.799 -0.109,2.78 -0.298,3.527h-23.134c-0.189,-0.746 -0.298,-2.728 -0.298,-3.527c0,-5.785 5.313,-10.473 11.87,-10.473c6.547,0 11.86,4.688 11.86,10.473z" fill="#ffffff"></path><circle cx="23.522" cy="30.825" r="4.638" fill="url(#color-2)"></circle><circle cx="21.203" cy="27.181" r="2.982" fill="#ffffff"></circle><path d="M41.41,14.6c-2.53,0 -5.97,1.74 -8.57,4.34c-0.19,0.2 -0.45,0.3 -0.7,0.3c-0.26,0 -0.52,-0.1 -0.71,-0.3c-2.6,-2.6 -6.04,-4.34 -8.57,-4.34h-11.59v38.42h26.83c8.21,0 14.9,-6.69 14.9,-14.91v-23.51zM51,38.11c0,7.12 -5.79,12.91 -12.9,12.91h-24.83v-34.42h9.59c1.69,0 4.69,1.29 7.15,3.76c0.57,0.56 1.32,0.88 2.13,0.88c0.8,0 1.55,-0.32 2.12,-0.88c2.46,-2.47 5.46,-3.76 7.15,-3.76h9.59z" fill="#ffffff"></path><path d="M41.067,20.23c-3.929,0 -7.322,2.299 -8.932,5.617c-1.61,-3.318 -5.003,-5.617 -8.933,-5.617c-5.477,0 -9.932,4.455 -9.932,9.932c0,5.477 4.456,9.933 9.932,9.933c3.929,0 7.323,-2.299 8.933,-5.618c1.61,3.318 5.003,5.618 8.932,5.618c5.477,0 9.933,-4.456 9.933,-9.933c0,-5.477 -4.456,-9.932 -9.933,-9.932zM23.203,38.095c-4.374,0 -7.932,-3.559 -7.932,-7.933c0,-4.373 3.558,-7.932 7.932,-7.932c4.374,0 7.933,3.559 7.933,7.932c-0.001,4.374 -3.559,7.933 -7.933,7.933zM41.067,38.095c-4.374,0 -7.932,-3.559 -7.932,-7.933c0,-4.373 3.558,-7.932 7.932,-7.932c4.374,0 7.933,3.559 7.933,7.932c0,4.374 -3.559,7.933 -7.933,7.933z" fill="url(#color-3)"></path><circle cx="40.749" cy="30.825" r="4.638" fill="url(#color-4)"></circle><circle cx="38.43" cy="27.181" r="2.982" fill="#ffffff"></circle><path d="M36.57,39.3l-4.43,4.44l-0.24,0.24l-4.77,-4.77c1.14,-1.29 2.82,-2.1 4.67,-2.1c0.12,0 0.22,0.02 0.34,0.02c1.77,0.09 3.34,0.91 4.43,2.17z" fill="url(#color-5)"></path><path d="M31.9,45.278l-6.142,-6.143l0.623,-0.704c1.369,-1.549 3.344,-2.438 5.419,-2.438c0.091,0 0.175,0.006 0.258,0.014l0.133,0.007c1.997,0.102 3.82,0.994 5.135,2.515l0.608,0.703zM28.562,39.112l3.337,3.337l3.25,-3.258c-0.865,-0.709 -1.924,-1.121 -3.061,-1.179c-0.035,0.004 -0.123,-0.005 -0.208,-0.013c-0.007,0 -0.015,0 -0.021,0c-1.24,0.001 -2.385,0.399 -3.297,1.113z" fill="url(#color-6)"></path><path d="M54,12.6h-11.736c-0.798,-4.877 -5.03,-8.616 -10.129,-8.616c-5.099,0 -9.331,3.739 -10.129,8.616h-11.736c-0.55,0 -1,0.45 -1,1v40.42c0,0.55 0.45,1 1,1h27.83c9.32,0 16.9,-7.59 16.9,-16.91v-24.51c0,-0.55 -0.45,-1 -1,-1zM32.135,5.984c4.025,0 7.384,2.89 8.122,6.703c-2.603,0.367 -5.616,1.906 -8.117,4.172c-2.51,-2.266 -5.523,-3.805 -8.126,-4.172c0.737,-3.812 4.096,-6.703 8.121,-6.703zM53,38.11c0,8.22 -6.69,14.91 -14.9,14.91h-26.83v-38.42h11.59c2.53,0 5.97,1.74 8.57,4.34c0.19,0.2 0.45,0.3 0.71,0.3c0.25,0 0.51,-0.1 0.7,-0.3c2.6,-2.6 6.04,-4.34 8.57,-4.34h11.59z" fill="url(#color-7)"></path></g></g></svg>